<svg xmlns="http://www.w3.org/2000/svg" width="900" height="200" viewBox="0 0 900 200" role="img" aria-label="Dogfooding">
  <rect width="900" height="200" fill="#F6F1EB"/>
  <path transform="translate(236.8 122.5)" fill="#2A2420" d="M23.471999999999998 0.288Q21.168 0.288 17.712 0.072Q14.255999999999998 -0.144 11.39749253731343 -0.144Q8.783999999999999 -0.144 6.418285714285714 -0.072Q4.0525714285714285 0.0 2.1599999999999997 0.0Q2.016 0.0 2.016 -0.43199999999999994Q2.016 -0.8639999999999999 2.1599999999999997 -0.8639999999999999Q4.3792 -0.8639999999999999 5.517999999999999 -1.2239999999999998Q6.656799999999999 -1.5839999999999999 7.036399999999999 -2.6639999999999997Q7.4159999999999995 -3.7439999999999998 7.4159999999999995 -5.832V-39.168Q7.4159999999999995 -41.256 7.042651685393258 -42.3Q6.6693033707865155 -43.343999999999994 5.577977528089887 -43.739999999999995Q4.486651685393258 -44.135999999999996 2.304 -44.135999999999996Q2.0879999999999996 -44.135999999999996 2.0879999999999996 -44.568Q2.0879999999999996 -45.0 2.304 -45.0Q4.177734939759036 -45.0 6.4808674698795175 -44.891999999999996Q8.783999999999999 -44.784 11.411999999999999 -44.784Q14.04 -44.784 17.14581818181818 -44.964Q20.25163636363636 -45.144 22.464 -45.144Q29.951999999999998 -45.144 35.50380722891566 -42.263999999999996Q41.05561445783132 -39.384 44.14380722891566 -34.416Q47.232 -29.447999999999997 47.232 -23.255999999999997Q47.232 -17.855999999999998 45.35621052631579 -13.5Q43.48042105263158 -9.144 40.18042105263157 -6.084Q36.880421052631576 -3.0239999999999996 32.573052631578946 -1.3679999999999999Q28.265684210526313 0.288 23.471999999999998 0.288ZM22.752 -1.3679999999999999Q27.323492957746474 -1.3679999999999999 30.833746478873234 -3.7079999999999993Q34.343999999999994 -6.047999999999999 36.36 -10.59826198083067Q38.376 -15.148523961661342 38.376 -21.67867092651757Q38.376 -27.791999999999998 36.504 -32.76Q34.632 -37.727999999999994 31.245971830985916 -40.64399999999999Q27.85994366197183 -43.559999999999995 23.183999999999997 -43.559999999999995Q18.98633628318584 -43.559999999999995 17.19716814159292 -42.772499999999994Q15.408 -41.985 15.408 -39.023999999999994V-6.624Q15.408 -3.9599999999999995 16.802 -2.6639999999999997Q18.195999999999998 -1.3679999999999999 22.752 -1.3679999999999999ZM67.392 0.9359999999999999Q62.855999999999995 0.9359999999999999 59.544 -1.152Q56.232 -3.2399999999999998 54.432 -6.731999999999999Q52.632 -10.223999999999998 52.632 -14.255999999999998Q52.632 -18.0 54.071999999999996 -20.735999999999997Q55.51199999999999 -23.471999999999998 57.88799999999999 -25.235999999999997Q60.263999999999996 -26.999999999999996 63.071999999999996 -27.863999999999997Q65.88 -28.727999999999998 68.616 -28.727999999999998Q73.22399999999999 -28.727999999999998 76.5 -26.567999999999998Q79.776 -24.407999999999998 81.50399999999999 -21.023999999999997Q83.232 -17.639999999999997 83.232 -13.823999999999998Q83.232 -9.431999999999999 81.036 -6.084Q78.83999999999999 -2.7359999999999998 75.23999999999998 -0.8999999999999999Q71.63999999999999 0.9359999999999999 67.392 0.9359999999999999ZM69.55199999999999 -0.576Q72.43199999999999 -0.576 73.87199999999999 -3.3839999999999995Q75.312 -6.191999999999999 75.312 -11.303999999999998Q75.312 -16.56 73.97999999999999 -20.088Q72.648 -23.616 70.56 -25.415999999999997Q68.472 -27.215999999999998 66.16799999999999 -27.215999999999998Q63.35999999999999 -27.215999999999998 61.88399999999999 -24.695999999999998Q60.407999999999994 -22.176 60.407999999999994 -16.919999999999998Q60.407999999999994 -12.024 61.63199999999999 -8.315999999999999Q62.855999999999995 -4.608 64.94399999999999 -2.5919999999999996Q67.032 -0.576 69.55199999999999 -0.576ZM98.63999999999999 20.304Q93.67199999999998 20.304 90.50399999999999 18.035999999999998Q87.33599999999998 15.767999999999999 87.33599999999998 12.095999999999998Q87.33599999999998 9.792 89.1 7.199999999999999Q90.86399999999999 4.608 95.90399999999998 1.5119999999999998L96.62399999999998 2.304Q95.75999999999999 2.88 95.112 3.7079999999999997Q94.46399999999998 4.536 94.13999999999999 5.688Q93.81599999999999 6.84 93.81599999999999 8.351999999999999Q93.81599999999999 11.591999999999999 95.148 13.715999999999998Q96.47999999999999 15.839999999999998 98.56799999999998 16.919999999999998Q100.65599999999999 18.0 102.95999999999998 18.0Q106.55999999999999 18.0 108.75599999999999 15.696Q110.95199999999998 13.392 110.95199999999998 9.431999999999999Q110.95199999999998 6.191999999999999 109.54799999999997 4.824Q108.14399999999998 3.4559999999999995 105.69599999999998 3.1319999999999997Q103.24799999999999 2.808 100.00799999999998 2.808Q97.55999999999999 2.7359999999999998 95.112 2.376Q92.66399999999999 2.016 91.04399999999998 0.8280000000000001Q89.42399999999999 -0.36 89.42399999999999 -2.88Q89.42399999999999 -5.3999999999999995 91.18799999999999 -7.776Q92.95199999999998 -10.152 96.83999999999999 -12.024L97.48799999999999 -11.591999999999999Q96.04799999999999 -10.728 95.32799999999999 -9.684Q94.60799999999999 -8.639999999999999 94.60799999999999 -7.127999999999999Q94.60799999999999 -5.111999999999999 95.72399999999999 -4.247999999999999Q96.83999999999999 -3.384 98.856 -3.2039999999999997Q100.87199999999999 -3.0239999999999996 103.53599999999999 -2.952Q105.98399999999998 -2.952 108.32399999999998 -2.772Q110.66399999999999 -2.5919999999999996 112.60799999999999 -1.8719999999999999Q114.55199999999999 -1.152 115.70399999999998 0.43200000000000005Q116.85599999999998 2.016 116.85599999999998 4.824Q116.85599999999998 7.919999999999999 115.41599999999998 10.691999999999998Q113.97599999999998 13.463999999999999 111.45599999999999 15.623999999999999Q108.93599999999998 17.784 105.62399999999998 19.043999999999997Q102.31199999999998 20.304 98.63999999999999 20.304ZM99.86399999999999 -9.575999999999999Q96.40799999999999 -9.575999999999999 93.88799999999998 -11.015999999999998Q91.36799999999998 -12.456 89.99999999999999 -14.687999999999999Q88.63199999999999 -16.919999999999998 88.63199999999999 -19.296Q88.63199999999999 -22.319999999999997 90.576 -24.336Q92.51999999999998 -26.351999999999997 95.43599999999998 -27.323999999999998Q98.35199999999999 -28.296 101.23199999999999 -28.296Q104.54399999999998 -28.296 107.064 -27.107999999999997Q109.58399999999999 -25.919999999999998 111.05999999999999 -23.903999999999996Q112.53599999999999 -21.887999999999998 112.53599999999999 -19.296Q112.53599999999999 -16.272 110.62799999999999 -14.111999999999998Q108.71999999999998 -11.952 105.80399999999999 -10.764Q102.88799999999999 -9.575999999999999 99.86399999999999 -9.575999999999999ZM101.73599999999999 -10.872Q103.17599999999999 -10.872 104.32799999999999 -12.312Q105.47999999999999 -13.751999999999999 105.47999999999999 -17.279999999999998Q105.47999999999999 -20.592 104.43599999999998 -22.716Q103.39199999999998 -24.84 101.844 -25.884Q100.29599999999999 -26.927999999999997 98.85599999999998 -26.927999999999997Q97.12799999999999 -26.927999999999997 96.37199999999999 -25.488Q95.61599999999999 -24.048 95.61599999999999 -21.456Q95.61599999999999 -18.36 96.51599999999999 -15.983999999999998Q97.41599999999998 -13.607999999999999 98.82 -12.239999999999998Q100.22399999999999 -10.872 101.73599999999999 -10.872ZM107.27999999999999 -22.535999999999998 107.42399999999998 -24.84Q109.72799999999998 -26.639999999999997 111.92399999999998 -27.575999999999997Q114.11999999999998 -28.511999999999997 116.78399999999999 -28.511999999999997Q117.14399999999998 -28.511999999999997 117.25199999999998 -27.936Q117.35999999999999 -27.36 117.35999999999999 -26.496Q117.35999999999999 -25.488 117.07199999999999 -24.264Q116.78399999999999 -23.04 116.49599999999998 -23.255999999999997Q115.19999999999999 -23.831999999999997 113.832 -24.156Q112.46399999999998 -24.479999999999997 111.16799999999998 -24.479999999999997Q110.30399999999999 -24.479999999999997 109.47599999999998 -24.372Q108.64799999999998 -24.264 107.71199999999999 -23.904ZM119.952 0.0Q119.664 0.0 119.664 -0.43199999999999994Q119.664 -0.8639999999999999 119.952 -0.8639999999999999Q122.68799999999999 -0.8639999999999999 123.47999999999999 -1.7999999999999998Q124.27199999999999 -2.7359999999999998 124.27199999999999 -5.832V-22.032Q124.27199999999999 -23.616 123.84 -24.372Q123.408 -25.127999999999997 122.4 -25.379999999999995Q121.392 -25.631999999999998 119.664 -25.631999999999998Q119.448 -25.631999999999998 119.448 -26.279999999999998Q119.448 -26.927999999999997 119.664 -26.927999999999997Q122.184 -26.927999999999997 123.12 -27.612Q124.056 -28.296 124.128 -30.095999999999997Q124.488 -42.047999999999995 128.664 -47.16Q132.84 -52.272 140.976 -52.272Q145.00799999999998 -52.272 147.23999999999998 -51.19199999999999Q149.47199999999998 -50.111999999999995 149.47199999999998 -48.023999999999994Q149.47199999999998 -46.296 148.32 -45.396Q147.168 -44.495999999999995 145.79999999999998 -44.495999999999995Q143.856 -44.495999999999995 143.1 -45.467999999999996Q142.344 -46.44 141.84 -47.592Q141.33599999999998 -48.744 140.652 -49.68Q139.968 -50.616 138.168 -50.616Q135.072 -50.616 133.05599999999998 -46.224Q131.04 -41.831999999999994 131.04 -31.607999999999997V-5.832Q131.04 -3.7439999999999998 131.47199999999998 -2.6639999999999997Q131.904 -1.5839999999999999 133.272 -1.2239999999999998Q134.64 -0.8639999999999999 137.44799999999998 -0.8639999999999999Q137.736 -0.8639999999999999 137.736 -0.43199999999999994Q137.736 0.0 137.44799999999998 0.0Q134.928 0.0 132.516 -0.072Q130.10399999999998 -0.144 127.58399999999999 -0.144Q125.496 -0.144 123.51599999999999 -0.072Q121.536 0.0 119.952 0.0ZM138.744 -24.119999999999997Q135.93599999999998 -24.767999999999997 133.38 -25.019999999999996Q130.82399999999998 -25.272 127.94399999999999 -25.272V-27.144Q130.68 -27.144 133.344 -27.36Q136.00799999999998 -27.575999999999997 138.95999999999998 -27.863999999999997Q139.176 -27.863999999999997 139.32 -27.323999999999998Q139.464 -26.784 139.464 -26.136Q139.464 -25.415999999999997 139.212 -24.732Q138.95999999999998 -24.048 138.744 -24.119999999999997ZM157.03199999999998 0.9359999999999999Q152.49599999999998 0.9359999999999999 149.18399999999997 -1.152Q145.87199999999999 -3.2399999999999998 144.072 -6.731999999999999Q142.272 -10.223999999999998 142.272 -14.255999999999998Q142.272 -18.0 143.712 -20.735999999999997Q145.152 -23.471999999999998 147.528 -25.235999999999997Q149.904 -26.999999999999996 152.712 -27.863999999999997Q155.51999999999998 -28.727999999999998 158.256 -28.727999999999998Q162.86399999999998 -28.727999999999998 166.14 -26.567999999999998Q169.416 -24.407999999999998 171.144 -21.023999999999997Q172.87199999999999 -17.639999999999997 172.87199999999999 -13.823999999999998Q172.87199999999999 -9.431999999999999 170.676 -6.084Q168.48 -2.7359999999999998 164.88 -0.8999999999999999Q161.27999999999997 0.9359999999999999 157.03199999999998 0.9359999999999999ZM159.19199999999998 -0.576Q162.072 -0.576 163.512 -3.3839999999999995Q164.952 -6.191999999999999 164.952 -11.303999999999998Q164.952 -16.56 163.62 -20.088Q162.28799999999998 -23.616 160.2 -25.415999999999997Q158.112 -27.215999999999998 155.808 -27.215999999999998Q153.0 -27.215999999999998 151.524 -24.695999999999998Q150.048 -22.176 150.048 -16.919999999999998Q150.048 -12.024 151.272 -8.315999999999999Q152.49599999999998 -4.608 154.584 -2.5919999999999996Q156.672 -0.576 159.19199999999998 -0.576ZM192.23999999999998 0.9359999999999999Q187.70399999999998 0.9359999999999999 184.392 -1.152Q181.07999999999998 -3.2399999999999998 179.27999999999997 -6.731999999999999Q177.48 -10.223999999999998 177.48 -14.255999999999998Q177.48 -18.0 178.92 -20.735999999999997Q180.35999999999999 -23.471999999999998 182.736 -25.235999999999997Q185.112 -26.999999999999996 187.92 -27.863999999999997Q190.72799999999998 -28.727999999999998 193.464 -28.727999999999998Q198.07199999999997 -28.727999999999998 201.34799999999998 -26.567999999999998Q204.624 -24.407999999999998 206.35199999999998 -21.023999999999997Q208.07999999999998 -17.639999999999997 208.07999999999998 -13.823999999999998Q208.07999999999998 -9.431999999999999 205.884 -6.084Q203.688 -2.7359999999999998 200.088 -0.8999999999999999Q196.488 0.9359999999999999 192.23999999999998 0.9359999999999999ZM194.39999999999998 -0.576Q197.27999999999997 -0.576 198.71999999999997 -3.3839999999999995Q200.16 -6.191999999999999 200.16 -11.303999999999998Q200.16 -16.56 198.82799999999997 -20.088Q197.49599999999998 -23.616 195.408 -25.415999999999997Q193.32 -27.215999999999998 191.016 -27.215999999999998Q188.208 -27.215999999999998 186.732 -24.695999999999998Q185.256 -22.176 185.256 -16.919999999999998Q185.256 -12.024 186.48 -8.315999999999999Q187.70399999999998 -4.608 189.79199999999997 -2.5919999999999996Q191.88 -0.576 194.39999999999998 -0.576ZM223.992 0.9359999999999999Q220.896 0.9359999999999999 218.33999999999997 -0.72Q215.784 -2.376 214.236 -5.507999999999999Q212.688 -8.639999999999999 212.688 -13.104Q212.688 -17.496 214.272 -20.483999999999998Q215.856 -23.471999999999998 218.33999999999997 -25.272Q220.82399999999998 -27.072 223.70399999999998 -27.9Q226.58399999999997 -28.727999999999998 229.176 -28.727999999999998Q231.76799999999997 -28.727999999999998 233.99999999999997 -28.08Q236.23199999999997 -27.432 238.03199999999998 -26.496L236.37599999999998 -20.663999999999998Q234.86399999999998 -23.904 232.92 -25.38Q230.976 -26.855999999999998 228.09599999999998 -26.855999999999998Q224.42399999999998 -26.855999999999998 222.26399999999998 -24.299999999999997Q220.10399999999998 -21.744 220.10399999999998 -15.408Q220.10399999999998 -11.303999999999998 221.11199999999997 -8.424Q222.11999999999998 -5.544 223.91999999999996 -4.032Q225.71999999999997 -2.52 227.952 -2.52Q230.832 -2.52 232.992 -4.104Q235.152 -5.688 237.16799999999998 -7.919999999999999L237.88799999999998 -7.271999999999999Q236.37599999999998 -5.544 234.32399999999998 -3.6359999999999997Q232.272 -1.7279999999999998 229.716 -0.3959999999999999Q227.16 0.9359999999999999 223.992 0.9359999999999999ZM241.55999999999997 -51.263999999999996V-8.351999999999999Q241.55999999999997 -5.904 242.02799999999996 -4.896Q242.49599999999998 -3.888 243.576 -3.888Q244.07999999999998 -3.888 244.83599999999998 -4.103999999999999Q245.59199999999998 -4.319999999999999 246.528 -4.68Q246.74399999999997 -4.824 246.95999999999998 -4.428Q247.176 -4.032 247.03199999999998 -3.888L237.09599999999998 0.9359999999999999Q236.88 1.008 236.736 1.008Q236.016 1.008 235.404 -0.7919999999999998Q234.79199999999997 -2.5919999999999996 234.79199999999997 -5.904V-42.407999999999994Q234.79199999999997 -44.855999999999995 234.35999999999999 -45.971999999999994Q233.928 -47.087999999999994 232.70399999999998 -47.087999999999994Q232.2 -47.087999999999994 231.516 -46.872Q230.832 -46.656 230.04 -46.296Q229.75199999999998 -46.224 229.536 -46.65599999999999Q229.32 -47.087999999999994 229.464 -47.16L240.04799999999997 -52.12799999999999Q240.19199999999998 -52.199999999999996 240.33599999999998 -52.199999999999996Q240.69599999999997 -52.199999999999996 241.128 -51.876Q241.55999999999997 -51.552 241.55999999999997 -51.263999999999996ZM249.91199999999998 0.0Q249.696 0.0 249.696 -0.43199999999999994Q249.696 -0.8639999999999999 249.91199999999998 -0.8639999999999999Q252.14399999999998 -0.8639999999999999 252.93599999999998 -1.908Q253.72799999999998 -2.952 253.72799999999998 -5.832V-18.72Q253.72799999999998 -21.096 253.26 -22.212Q252.79199999999997 -23.328 251.56799999999998 -23.328Q251.064 -23.328 250.38 -23.112Q249.696 -22.895999999999997 248.904 -22.535999999999998Q248.61599999999999 -22.464 248.43599999999998 -22.896Q248.25599999999997 -23.328 248.47199999999998 -23.4L259.344 -28.439999999999998Q259.488 -28.511999999999997 259.56 -28.511999999999997Q259.91999999999996 -28.511999999999997 260.28 -28.151999999999997Q260.64 -27.791999999999998 260.64 -27.503999999999998Q260.64 -26.639999999999997 260.568 -24.623999999999995Q260.496 -22.607999999999997 260.496 -18.863999999999997V-5.832Q260.496 -2.952 261.32399999999996 -1.908Q262.152 -0.8639999999999999 264.38399999999996 -0.8639999999999999Q264.59999999999997 -0.8639999999999999 264.59999999999997 -0.43199999999999994Q264.59999999999997 0.0 264.38399999999996 0.0Q262.94399999999996 0.0 261.072 -0.072Q259.2 -0.144 257.11199999999997 -0.144Q255.09599999999998 -0.144 253.224 -0.072Q251.35199999999998 0.0 249.91199999999998 0.0ZM256.82399999999996 -35.64Q254.808 -35.64 253.62 -36.792Q252.432 -37.943999999999996 252.432 -40.032Q252.432 -41.903999999999996 253.62 -43.019999999999996Q254.808 -44.135999999999996 256.82399999999996 -44.135999999999996Q258.84 -44.135999999999996 259.91999999999996 -43.019999999999996Q261.0 -41.903999999999996 261.0 -40.032Q261.0 -35.64 256.82399999999996 -35.64ZM288.21599999999995 0.0Q287.99999999999994 0.0 287.99999999999994 -0.43199999999999994Q287.99999999999994 -0.8639999999999999 288.21599999999995 -0.8639999999999999Q290.448 -0.8639999999999999 291.24 -1.908Q292.032 -2.952 292.032 -5.832V-16.2Q292.032 -20.087999999999997 290.62799999999993 -21.959999999999997Q289.22399999999993 -23.831999999999997 286.2 -23.831999999999997Q284.03999999999996 -23.831999999999997 281.77199999999993 -22.751999999999995Q279.50399999999996 -21.671999999999997 278.13599999999997 -19.799999999999997L277.77599999999995 -20.663999999999998Q280.29599999999994 -24.264 283.46399999999994 -26.46Q286.63199999999995 -28.656 290.376 -28.656Q294.40799999999996 -28.656 296.6039999999999 -26.136Q298.79999999999995 -23.616 298.79999999999995 -19.656V-5.832Q298.79999999999995 -2.952 299.62799999999993 -1.908Q300.45599999999996 -0.8639999999999999 302.688 -0.8639999999999999Q302.90399999999994 -0.8639999999999999 302.90399999999994 -0.43199999999999994Q302.90399999999994 0.0 302.688 0.0Q301.24799999999993 0.0 299.376 -0.072Q297.50399999999996 -0.144 295.41599999999994 -0.144Q293.4 -0.144 291.52799999999996 -0.072Q289.65599999999995 0.0 288.21599999999995 0.0ZM268.84799999999996 0.0Q268.63199999999995 0.0 268.63199999999995 -0.43199999999999994Q268.63199999999995 -0.8639999999999999 268.84799999999996 -0.8639999999999999Q271.08 -0.8639999999999999 271.87199999999996 -1.908Q272.664 -2.952 272.664 -5.832V-19.368Q272.664 -21.599999999999998 272.15999999999997 -22.644Q271.65599999999995 -23.688 270.43199999999996 -23.688Q269.784 -23.688 268.91999999999996 -23.436Q268.056 -23.183999999999997 266.97599999999994 -22.68Q266.688 -22.535999999999998 266.544 -22.967999999999996Q266.4 -23.4 266.544 -23.471999999999998L276.55199999999996 -28.368Q276.984 -28.511999999999997 277.056 -28.511999999999997Q277.84799999999996 -28.511999999999997 278.64 -26.784Q279.43199999999996 -25.055999999999997 279.43199999999996 -21.816V-5.832Q279.43199999999996 -2.952 280.26 -1.908Q281.08799999999997 -0.8639999999999999 283.31999999999994 -0.8639999999999999Q283.53599999999994 -0.8639999999999999 283.53599999999994 -0.43199999999999994Q283.53599999999994 0.0 283.31999999999994 0.0Q281.87999999999994 0.0 280.0079999999999 -0.072Q278.13599999999997 -0.144 276.04799999999994 -0.144Q274.032 -0.144 272.15999999999997 -0.072Q270.28799999999995 0.0 268.84799999999996 0.0ZM317.01599999999996 20.304Q312.048 20.304 308.88 18.035999999999998Q305.712 15.767999999999999 305.712 12.095999999999998Q305.712 9.792 307.476 7.199999999999999Q309.23999999999995 4.608 314.28 1.5119999999999998L315.0 2.304Q314.13599999999997 2.88 313.48799999999994 3.7079999999999997Q312.84 4.536 312.51599999999996 5.688Q312.19199999999995 6.84 312.19199999999995 8.351999999999999Q312.19199999999995 11.591999999999999 313.524 13.715999999999998Q314.856 15.839999999999998 316.94399999999996 16.919999999999998Q319.032 18.0 321.33599999999996 18.0Q324.936 18.0 327.13199999999995 15.696Q329.328 13.392 329.328 9.431999999999999Q329.328 6.191999999999999 327.924 4.824Q326.52 3.4559999999999995 324.072 3.1319999999999997Q321.62399999999997 2.808 318.38399999999996 2.808Q315.936 2.7359999999999998 313.48799999999994 2.376Q311.03999999999996 2.016 309.41999999999996 0.8280000000000001Q307.79999999999995 -0.36 307.79999999999995 -2.88Q307.79999999999995 -5.3999999999999995 309.56399999999996 -7.776Q311.328 -10.152 315.21599999999995 -12.024L315.864 -11.591999999999999Q314.424 -10.728 313.70399999999995 -9.684Q312.984 -8.639999999999999 312.984 -7.127999999999999Q312.984 -5.111999999999999 314.09999999999997 -4.247999999999999Q315.21599999999995 -3.384 317.23199999999997 -3.2039999999999997Q319.248 -3.0239999999999996 321.912 -2.952Q324.35999999999996 -2.952 326.69999999999993 -2.772Q329.03999999999996 -2.5919999999999996 330.984 -1.8719999999999999Q332.928 -1.152 334.08 0.43200000000000005Q335.23199999999997 2.016 335.23199999999997 4.824Q335.23199999999997 7.919999999999999 333.792 10.691999999999998Q332.352 13.463999999999999 329.832 15.623999999999999Q327.31199999999995 17.784 324.0 19.043999999999997Q320.688 20.304 317.01599999999996 20.304ZM318.23999999999995 -9.575999999999999Q314.784 -9.575999999999999 312.264 -11.015999999999998Q309.74399999999997 -12.456 308.376 -14.687999999999999Q307.008 -16.919999999999998 307.008 -19.296Q307.008 -22.319999999999997 308.952 -24.336Q310.89599999999996 -26.351999999999997 313.81199999999995 -27.323999999999998Q316.72799999999995 -28.296 319.60799999999995 -28.296Q322.91999999999996 -28.296 325.43999999999994 -27.107999999999997Q327.96 -25.919999999999998 329.436 -23.903999999999996Q330.912 -21.887999999999998 330.912 -19.296Q330.912 -16.272 329.004 -14.111999999999998Q327.096 -11.952 324.17999999999995 -10.764Q321.26399999999995 -9.575999999999999 318.23999999999995 -9.575999999999999ZM320.11199999999997 -10.872Q321.55199999999996 -10.872 322.70399999999995 -12.312Q323.856 -13.751999999999999 323.856 -17.279999999999998Q323.856 -20.592 322.812 -22.716Q321.768 -24.84 320.21999999999997 -25.884Q318.67199999999997 -26.927999999999997 317.23199999999997 -26.927999999999997Q315.50399999999996 -26.927999999999997 314.74799999999993 -25.488Q313.99199999999996 -24.048 313.99199999999996 -21.456Q313.99199999999996 -18.36 314.89199999999994 -15.983999999999998Q315.792 -13.607999999999999 317.19599999999997 -12.239999999999998Q318.59999999999997 -10.872 320.11199999999997 -10.872ZM325.65599999999995 -22.535999999999998 325.79999999999995 -24.84Q328.104 -26.639999999999997 330.29999999999995 -27.575999999999997Q332.496 -28.511999999999997 335.15999999999997 -28.511999999999997Q335.52 -28.511999999999997 335.628 -27.936Q335.736 -27.36 335.736 -26.496Q335.736 -25.488 335.448 -24.264Q335.15999999999997 -23.04 334.87199999999996 -23.255999999999997Q333.57599999999996 -23.831999999999997 332.20799999999997 -24.156Q330.84 -24.479999999999997 329.544 -24.479999999999997Q328.67999999999995 -24.479999999999997 327.852 -24.372Q327.024 -24.264 326.08799999999997 -23.904Z"/>
  <text x="594.8" y="122.5" font-size="61" font-family="'Apple Color Emoji','Segoe UI Emoji','Noto Color Emoji',sans-serif">🐕</text>
</svg>
